<svg xmlns="http://www.w3.org/2000/svg" viewBox="0 0 195.5 195.5"><defs><style>.cls-1{fill:#e6e6e6;}</style></defs><g id="Layer_2" data-name="Layer 2"><g id="Layer_1-2" data-name="Layer 1"><path class="cls-1" d="M146.63,147v-.34l-24.36-24.36-.08.08v-.16L97.75,97.75H73.32v.09l-.09-.09H48.88v.17l24.26,24.26h.18v.18l24.26,24.27h.34l-.17.17L122,171.06h.52l-.26.26,24.18,24.18h.69l23.92-23.92v-.52h.52l23.92-23.92v-49Z"/><path class="cls-1" d="M24.18,97.75,121.93,0h-49l-24,24v.34l.08.09h-.51l-24,24V49l-.09-.08H24l-24,24v49.29H.43l-.09.09,24.35,24.36H25l-.17.17,24.27,24.26h.51l-.25.26L73.57,195.5H97.75v-.34l.34.34h23.84Z"/></g></g></svg>